<svg width="65" height="65" viewBox="0 0 65 65" fill="none" xmlns="http://www.w3.org/2000/svg">
<rect x="0.5" y="0.5" width="64" height="64" rx="32" fill="#F48C06"/>
<path fill-rule="evenodd" clip-rule="evenodd" d="M39.167 42.5C37.787 42.5 36.667 41.38 36.667 40V25C36.667 23.62 37.787 22.5 39.167 22.5C40.547 22.5 41.667 23.62 41.667 25V40C41.667 41.38 40.547 42.5 39.167 42.5Z" fill="#000D14" stroke="#000D14" stroke-width="1.5" stroke-linecap="round" stroke-linejoin="round"/>
<path fill-rule="evenodd" clip-rule="evenodd" d="M25.833 42.5C24.453 42.5 23.333 41.38 23.333 40V25C23.333 23.62 24.453 22.5 25.833 22.5C27.213 22.5 28.333 23.62 28.333 25V40C28.333 41.38 27.213 42.5 25.833 42.5Z" fill="#000D14" stroke="#000D14" stroke-width="1.5" stroke-linecap="round" stroke-linejoin="round"/>
</svg>
