<svg width="24" height="24" viewBox="0 0 24 24" fill="none" xmlns="http://www.w3.org/2000/svg">
<path d="M14.5582 13.5577C13.9186 14.6361 12.6764 15.2036 11.4426 14.9811C10.2087 14.7585 9.24301 13.7928 9.02048 12.559C8.79795 11.3251 9.36544 10.0829 10.4438 9.44336" stroke="#505862" stroke-width="1.5" stroke-linecap="round" stroke-linejoin="round"/>
<path d="M17.9965 16.9962C16.2717 18.3044 14.1648 19.0095 12 19.0029C8.41285 19.0668 5.0985 17.0954 3.44239 13.9128C2.84749 12.707 2.84749 11.293 3.44239 10.0872C4.27064 8.43785 5.59094 7.08659 7.22068 6.22034" stroke="#505862" stroke-width="1.5" stroke-linecap="round" stroke-linejoin="round"/>
<path d="M20.4272 14.1345C20.4674 14.0585 20.5196 13.9903 20.5576 13.9128C21.1524 12.707 21.1524 11.293 20.5576 10.0872C18.9015 6.90465 15.5871 4.93323 12 4.99711C11.7751 4.99711 11.5565 5.02712 11.3345 5.04175" stroke="#505862" stroke-width="1.5" stroke-linecap="round" stroke-linejoin="round"/>
<path d="M21.0038 20.0033L3.9967 2.99622" stroke="#505862" stroke-width="1.5" stroke-linecap="round" stroke-linejoin="round"/>
</svg>
