<svg width="24" height="25" viewBox="0 0 24 25" fill="none" xmlns="http://www.w3.org/2000/svg">
<path d="M14.5582 14.0577C13.9186 15.1361 12.6764 15.7036 11.4426 15.4811C10.2087 15.2585 9.24301 14.2928 9.02048 13.059C8.79795 11.8251 9.36544 10.5829 10.4438 9.94336" stroke="#67727E" stroke-width="1.5" stroke-linecap="round" stroke-linejoin="round"/>
<path d="M17.9965 17.4962C16.2717 18.8044 14.1648 19.5095 12 19.5029C8.41285 19.5668 5.0985 17.5954 3.44239 14.4128C2.84749 13.207 2.84749 11.793 3.44239 10.5872C4.27064 8.93785 5.59094 7.58659 7.22068 6.72034" stroke="#67727E" stroke-width="1.5" stroke-linecap="round" stroke-linejoin="round"/>
<path d="M20.4272 14.6345C20.4674 14.5585 20.5196 14.4903 20.5576 14.4128C21.1524 13.207 21.1524 11.793 20.5576 10.5872C18.9015 7.40465 15.5871 5.43323 12 5.49711C11.7751 5.49711 11.5565 5.52712 11.3345 5.54175" stroke="#67727E" stroke-width="1.5" stroke-linecap="round" stroke-linejoin="round"/>
<path d="M21.0038 20.5033L3.9967 3.49622" stroke="#67727E" stroke-width="1.5" stroke-linecap="round" stroke-linejoin="round"/>
</svg>
