<svg width="24" height="25" viewBox="0 0 24 25" fill="none" xmlns="http://www.w3.org/2000/svg">
<path fill-rule="evenodd" clip-rule="evenodd" d="M5.875 9.12498H3.5C2.948 9.12498 2.5 9.57298 2.5 10.125V14.875C2.5 15.427 2.948 15.875 3.5 15.875H5.875L9.854 19.246C10.504 19.797 11.5 19.335 11.5 18.483V6.51698C11.5 5.66498 10.503 5.20298 9.854 5.75398L5.875 9.12498Z" stroke="#E4E4E4" stroke-width="1.5" stroke-linecap="round" stroke-linejoin="round"/>
<path d="M15.537 16.478C16.699 15.756 17.5 14.254 17.5 12.505C17.5 10.756 16.699 9.25297 15.537 8.52197" stroke="#E4E4E4" stroke-width="1.5" stroke-linecap="round" stroke-linejoin="round"/>
<path d="M18.505 19.565C20.313 18.01 21.5 15.43 21.5 12.503C21.5 9.57197 20.311 6.98997 18.5 5.43597" stroke="#E4E4E4" stroke-width="1.5" stroke-linecap="round" stroke-linejoin="round"/>
</svg>
