<svg width="24" height="25" viewBox="0 0 24 25" fill="none" xmlns="http://www.w3.org/2000/svg">
<path fill-rule="evenodd" clip-rule="evenodd" d="M11 19.892V8.00298C11 7.31298 10.645 6.67198 10.06 6.30698L6.06 3.80698C4.728 2.97498 3 3.93198 3 5.50298V17.391C3 18.081 3.355 18.722 3.94 19.087L7.94 21.587C9.272 22.42 11 21.462 11 19.892Z" stroke="#E4E4E4" stroke-width="1.5" stroke-linecap="round" stroke-linejoin="round"/>
<path d="M15 11.5H21" stroke="#E4E4E4" stroke-width="1.5" stroke-linecap="round" stroke-linejoin="round"/>
<path d="M19 13.5L21 11.5L19 9.5" stroke="#E4E4E4" stroke-width="1.5" stroke-linecap="round" stroke-linejoin="round"/>
<path d="M11 19.5H15C16.105 19.5 17 18.605 17 17.5V16.5" stroke="#E4E4E4" stroke-width="1.5" stroke-linecap="round" stroke-linejoin="round"/>
<path d="M17 6.5V5.5C17 4.395 16.105 3.5 15 3.5H5" stroke="#E4E4E4" stroke-width="1.5" stroke-linecap="round" stroke-linejoin="round"/>
</svg>
