<svg width="24" height="24" viewBox="0 0 24 24" fill="none" xmlns="http://www.w3.org/2000/svg">
<path d="M11.924 12.9654C12.4329 13.4741 12.5852 14.2392 12.3099 14.9039C12.0346 15.5687 11.386 16.0021 10.6665 16.0021C9.94699 16.0021 9.29836 15.5687 9.02308 14.9039C8.74781 14.2392 8.90011 13.4741 9.40896 12.9654C10.1036 12.2711 11.2294 12.2711 11.924 12.9654" stroke="#67727E" stroke-width="1.5" stroke-linecap="round" stroke-linejoin="round"/>
<path d="M13.0003 20.9417C12.6684 20.9828 12.3343 21.0037 11.9998 21.0037C7.02721 21.0037 2.99609 16.9726 2.99609 12C2.99609 7.02733 7.02721 2.99622 11.9998 2.99622C16.9725 2.99622 21.0036 7.02733 21.0036 12C21.0036 12.3344 20.9827 12.6685 20.9416 13.0004" stroke="#67727E" stroke-width="1.5" stroke-linecap="round" stroke-linejoin="round"/>
<path d="M18.2522 16.5019V20.0034" stroke="#67727E" stroke-width="1.5" stroke-linecap="round" stroke-linejoin="round"/>
<path d="M16.502 18.2516H20.0034" stroke="#67727E" stroke-width="1.5" stroke-linecap="round" stroke-linejoin="round"/>
<path d="M15.1124 8.88772L12.4443 7.99835V14.2229" stroke="#67727E" stroke-width="1.5" stroke-linecap="round" stroke-linejoin="round"/>
</svg>
