<svg width="24" height="24" viewBox="0 0 24 24" fill="none" xmlns="http://www.w3.org/2000/svg">
<path fill-rule="evenodd" clip-rule="evenodd" d="M5.87598 8.62486H3.50098C2.94898 8.62486 2.50098 9.07286 2.50098 9.62486V14.3749C2.50098 14.9269 2.94898 15.3749 3.50098 15.3749H5.87598L9.85498 18.7459C10.505 19.2969 11.501 18.8349 11.501 17.9829V6.01686C11.501 5.16486 10.504 4.70286 9.85498 5.25386L5.87598 8.62486Z" stroke="#67727E" stroke-width="1.5" stroke-linecap="round" stroke-linejoin="round"/>
<path d="M15.5381 15.9785C16.7001 15.2565 17.5011 13.7545 17.5011 12.0055C17.5011 10.2565 16.7001 8.75346 15.5381 8.02246" stroke="#67727E" stroke-width="1.5" stroke-linecap="round" stroke-linejoin="round"/>
<path d="M18.506 19.0645C20.314 17.5095 21.501 14.9295 21.501 12.0025C21.501 9.07155 20.312 6.48955 18.501 4.93555" stroke="#67727E" stroke-width="1.5" stroke-linecap="round" stroke-linejoin="round"/>
</svg>
