<svg width="30" height="24" viewBox="0 0 30 24" fill="none" xmlns="http://www.w3.org/2000/svg">
<path d="M29.1149 14.2564L29.149 6.20264C29.149 2.46226 27.1431 0.686523 23.7748 0.686523C20.9742 0.686523 18.5521 2.34891 17.4924 4.0113C16.8099 1.93332 15.1068 0.686523 12.4197 0.686523C9.73267 0.686523 7.19698 2.42448 6.44006 3.52014V1.1399H1.63361V19.27C1.15801 19.2625 0.620596 19.2285 0.341797 19.1693L0.383428 23.8542C1.95152 23.8403 3.6445 23.1955 4.96154 22.2598C5.90643 21.5886 6.45772 20.4942 6.45015 19.3368L6.44006 17.6945V8.83097C6.44006 6.92804 7.81261 5.26187 9.69861 4.99363C9.87018 4.9697 10.0455 4.95584 10.2247 4.95584C12.1927 4.95584 12.9496 6.16485 12.9496 7.86503V16.1493C12.4803 16.1405 11.9593 16.1077 11.6855 16.0498L11.7272 20.7347C13.2952 20.7208 14.9882 20.076 16.3053 19.1403C17.2502 18.4691 17.8015 17.3747 17.7939 16.2173L17.7914 15.6972C17.7926 15.6556 17.7939 15.6153 17.7939 15.5737V8.8209C17.7939 6.78951 19.3645 5.05659 21.3968 4.96088C21.4574 4.95836 21.5167 4.9571 21.5785 4.9571C23.5465 4.9571 24.3034 6.16611 24.3034 7.86628V18.2247C23.8341 18.2159 23.3131 18.1832 23.0394 18.1252L23.081 22.8102C24.6491 22.7963 26.3421 22.1515 27.6591 21.2158C28.604 20.5445 29.1553 19.4501 29.1477 18.2927L29.1237 14.2438C29.1237 14.2438 29.1174 14.2539 29.1136 14.2589L29.1149 14.2564Z" fill="#F48C06"/>
</svg>
