<svg width="78" height="20" viewBox="0 0 78 20" fill="none" xmlns="http://www.w3.org/2000/svg">
<g clip-path="url(#clip0_588_23731)">
<path d="M16.3305 19.4423V11.2044C16.3305 9.98916 15.789 9.12496 14.3812 9.12496C13.1629 9.12496 12.1611 9.93515 11.6738 10.6373V19.4414H8.20836V11.2044C8.20836 9.98916 7.66689 9.12496 6.25905 9.12496C5.0678 9.12496 4.06606 9.93515 3.55166 10.6643V19.4414H0.113281V6.39732H3.55166V8.09872C4.09314 7.31553 5.82587 6.07324 7.82933 6.07324C9.8328 6.07324 10.9699 6.96445 11.4572 8.4498C12.2153 7.26152 13.948 6.07324 15.9515 6.07324C18.3611 6.07324 19.796 7.34254 19.796 10.0162V19.4414H16.3305V19.4423Z" fill="#E4E4E4"/>
<path d="M58.5674 12.7691C58.5674 11.5629 58.812 10.4601 59.3011 9.46266C59.7902 8.46523 60.4671 7.67664 61.3316 7.09781C62.1962 6.51897 63.1826 6.2291 64.2917 6.2291C65.2212 6.2291 66.0695 6.46136 66.8366 6.92497C67.6028 7.38858 68.1903 7.97821 68.5982 8.69478V1.27344H71.9013V15.4293C71.9013 15.7713 71.9581 16.0153 72.0727 16.1611C72.1864 16.3079 72.3823 16.397 72.6602 16.4294V19.0895C72.0727 19.203 71.608 19.2516 71.2659 19.2363C70.6784 19.2525 70.1929 19.1138 69.8103 18.8213C69.4267 18.5287 69.211 18.1461 69.1623 17.6744L69.1136 16.8687C68.6407 17.6663 67.9999 18.2766 67.1931 18.6988C66.3854 19.1219 65.5416 19.3335 64.6608 19.3335C63.78 19.3335 62.9687 19.1687 62.226 18.8393C61.4832 18.5098 60.8398 18.0426 60.2929 17.4394C59.746 16.8363 59.3218 16.1359 59.0204 15.3392C58.7181 14.5426 58.5674 13.6865 58.5674 12.7682V12.7691ZM68.6235 14.7334V11.453C68.4602 10.9903 68.1994 10.5753 67.8402 10.208C67.481 9.84075 67.0821 9.54998 66.6417 9.33483C66.2013 9.11968 65.7609 9.01166 65.3205 9.01166C64.8151 9.01166 64.3576 9.11518 63.9506 9.32313C63.5427 9.53018 63.188 9.81014 62.8866 10.1612C62.5842 10.5123 62.3559 10.9156 62.2016 11.3702C62.0464 11.8248 61.9688 12.3082 61.9688 12.8187C61.9688 13.3291 62.0581 13.8368 62.2377 14.2914C62.4173 14.746 62.6619 15.1448 62.9714 15.4887C63.2809 15.8317 63.6564 16.0954 64.0968 16.2791C64.5372 16.4627 65.0101 16.5545 65.5154 16.5545C65.8412 16.5545 66.1598 16.5023 66.4693 16.3988C66.7789 16.2953 67.0767 16.1476 67.3628 15.9559C67.648 15.7641 67.9052 15.5409 68.1335 15.2852L68.6226 14.7352L68.6235 14.7334Z" fill="#E4E4E4"/>
<path d="M21.0137 12.8082C21.0137 9.0273 23.8023 5.97559 27.7821 5.97559C31.762 5.97559 34.334 8.89227 34.334 13.1593V13.9155H24.6145C24.8311 15.5628 26.1577 16.9402 28.3778 16.9402C29.4878 16.9402 31.031 16.454 31.8703 15.6439L33.3864 17.8584C32.0869 19.0467 30.0293 19.6678 27.9987 19.6678C24.0189 19.6678 21.0137 16.9942 21.0137 12.8082ZM27.4211 8.70323C25.2823 8.70323 24.3618 10.2966 24.1994 11.5929H30.6429C30.5617 10.3506 29.6954 8.70323 27.4211 8.70323Z" fill="#E4E4E4"/>
<path d="M35.5762 19.2763V6.23228H39.0145V8.0147C39.9351 6.85343 41.5595 5.9082 43.1839 5.9082V9.25699C42.9403 9.20298 42.6154 9.17597 42.2363 9.17597C41.0992 9.17597 39.5831 9.82412 39.0145 10.6613V19.2763H35.5762Z" fill="#E4E4E4"/>
<path d="M43.4365 12.6685C43.4365 8.96867 46.0356 5.83594 50.3404 5.83594C54.6451 5.83594 57.2713 8.96867 57.2713 12.6685C57.2713 16.3684 54.6722 19.5282 50.3404 19.5282C46.0085 19.5282 43.4365 16.3954 43.4365 12.6685ZM53.9683 12.6685C53.9683 10.6431 52.7499 8.88766 50.6111 8.88766C48.4723 8.88766 47.281 10.6431 47.281 12.6685C47.281 14.694 48.4723 16.4764 50.6111 16.4764C52.7499 16.4764 53.9683 14.721 53.9683 12.6685Z" fill="#E4E4E4"/>
<path d="M73.8848 2.79305C73.8848 1.65879 74.8323 0.767578 75.9424 0.767578C77.0524 0.767578 78 1.65879 78 2.79305C78 3.92732 77.0795 4.84554 75.9424 4.84554C74.8053 4.84554 73.8848 3.92732 73.8848 2.79305ZM74.2367 19.1139V6.06982H77.6751V19.1139H74.2367Z" fill="#E4E4E4"/>
</g>
<defs>
<clipPath id="clip0_588_23731">
<rect width="77.8861" height="18.8999" fill="white" transform="translate(0.113281 0.767578)"/>
</clipPath>
</defs>
</svg>
