<svg width="20" height="21" viewBox="0 0 20 21" fill="none" xmlns="http://www.w3.org/2000/svg">
<path d="M7.08301 15.2863V7.10548C7.08301 6.75965 7.29634 6.44965 7.61967 6.32715L14.703 3.62881C15.2488 3.42048 15.833 3.82381 15.833 4.40715V13.6146" stroke="#67727E" stroke-width="1.5" stroke-linecap="round" stroke-linejoin="round"/>
<path d="M15.2235 12.1414C16.0371 12.955 16.0371 14.2741 15.2235 15.0877C14.4099 15.9013 13.0908 15.9013 12.2772 15.0877C11.4636 14.2741 11.4636 12.955 12.2772 12.1414C13.0908 11.3279 14.4099 11.3279 15.2235 12.1414" stroke="#67727E" stroke-width="1.5" stroke-linecap="round" stroke-linejoin="round"/>
<path d="M6.47346 13.8084C7.28705 14.622 7.28705 15.9411 6.47346 16.7547C5.65987 17.5683 4.34078 17.5683 3.52719 16.7547C2.71359 15.9411 2.71359 14.622 3.52719 13.8084C4.34078 12.9948 5.65987 12.9948 6.47346 13.8084" stroke="#67727E" stroke-width="1.5" stroke-linecap="round" stroke-linejoin="round"/>
</svg>
